<svg width="31" height="20" viewBox="0 0 31 20" fill="none" xmlns="http://www.w3.org/2000/svg">
<path d="M8.7045 0.424316C9.588 0.424316 10.383 0.500817 11.112 0.656817C11.8365 0.811317 12.4545 1.06632 12.9765 1.41882C13.491 1.77132 13.893 2.23932 14.1825 2.82732C14.463 3.40782 14.6025 4.13382 14.6025 4.99182C14.6025 5.92182 14.3925 6.69882 13.971 7.31832C13.5465 7.93932 12.921 8.44782 12.087 8.84082C13.2225 9.16932 14.064 9.74382 14.622 10.5598C15.183 11.3833 15.4575 12.3688 15.4575 13.5238C15.4575 14.4613 15.279 15.2668 14.9205 15.9433C14.575 16.6097 14.0738 17.183 13.4595 17.6143C12.8232 18.0574 12.1124 18.3826 11.361 18.5743C10.5732 18.7811 9.76197 18.885 8.9475 18.8833H0V0.424316H8.7045ZM8.178 7.88232C8.898 7.88232 9.495 7.71132 9.966 7.36482C10.434 7.02282 10.6605 6.45882 10.6605 5.68632C10.6605 5.25732 10.584 4.90332 10.434 4.62582C10.2879 4.35885 10.0716 4.13686 9.8085 3.98382C9.53315 3.82051 9.22925 3.71106 8.913 3.66132C8.56829 3.59703 8.21814 3.56638 7.8675 3.56982H4.065V7.88232H8.178ZM8.4045 15.7408C8.805 15.7408 9.186 15.7063 9.5445 15.6253C9.906 15.5473 10.227 15.4213 10.5 15.2338C10.773 15.0538 10.998 14.8093 11.16 14.4973C11.3235 14.1883 11.403 13.7848 11.403 13.3003C11.403 12.3493 11.1345 11.6728 10.6035 11.2633C10.071 10.8583 9.357 10.6573 8.4825 10.6573H4.065V15.7423H8.4045V15.7408ZM21.252 15.6793C21.8025 16.2163 22.596 16.4863 23.628 16.4863C24.3675 16.4863 25.0065 16.2988 25.545 15.9268C26.076 15.5533 26.4 15.1543 26.5245 14.7418H29.757C29.238 16.3498 28.4505 17.4988 27.3735 18.1903C26.31 18.8848 25.0155 19.2298 23.5035 19.2298C22.4505 19.2298 21.5025 19.0603 20.6535 18.7243C19.8386 18.407 19.1022 17.9167 18.495 17.2873C17.8978 16.6433 17.4362 15.8858 17.1375 15.0598C16.8092 14.1465 16.6466 13.1818 16.6575 12.2113C16.6575 11.2123 16.824 10.2778 17.151 9.41532C17.4614 8.58159 17.9381 7.81966 18.552 7.17582C19.1595 6.54582 19.8795 6.04932 20.718 5.68482C21.5997 5.31398 22.5485 5.12912 23.505 5.14182C24.636 5.14182 25.6245 5.36082 26.4735 5.80182C27.2968 6.22278 28.0107 6.82984 28.5585 7.57482C29.103 8.31432 29.4915 9.16182 29.733 10.1113C29.9745 11.0593 30.0585 12.0493 29.9895 13.0858H20.343C20.3445 14.1418 20.7 15.1423 21.252 15.6793ZM25.47 8.65782C25.0335 8.17482 24.2955 7.91382 23.3925 7.91382C22.806 7.91382 22.3215 8.01132 21.9315 8.21232C21.5749 8.39243 21.2585 8.64297 21.0015 8.94882C20.7758 9.22649 20.6084 9.5469 20.5095 9.89082C20.423 10.1776 20.3672 10.4727 20.343 10.7713H26.316C26.229 9.83532 25.908 9.14382 25.47 8.65782ZM19.593 1.66332H27.0765V3.48582H19.593V1.66332Z" fill="black"/>
</svg>
