<svg width="30" height="31" viewBox="0 0 30 31" fill="none" xmlns="http://www.w3.org/2000/svg">
<path d="M27.99 8.29788C26.6811 6.02947 24.7973 4.1462 22.5285 2.83788C20.229 1.49838 17.7195 0.827881 15 0.827881C12.2805 0.827881 9.771 1.49838 7.47 2.83788C5.1705 4.17738 3.3495 5.99838 2.01 8.29788C0.6705 10.5974 0 13.1084 0 15.8279C0 18.5474 0.669 21.0584 2.01 23.3579C3.31848 25.6266 5.20238 27.51 7.4715 28.8179C9.771 30.1574 12.2805 30.8279 15 30.8279C17.7195 30.8279 20.229 30.1574 22.53 28.8179C24.7988 27.5096 26.6826 25.6263 27.9915 23.3579C29.331 21.0584 30 18.5474 30 15.8279C30 13.1084 29.331 10.5974 27.99 8.29788ZM15 3.31788C18 3.31788 20.658 4.27788 22.98 6.19638C21.6 7.95738 19.551 9.40638 16.83 10.5464C15.327 7.82688 13.698 5.55588 11.9385 3.73638C12.9357 3.46065 13.9654 3.3199 15 3.31788ZM5.265 8.02788C6.36186 6.63502 7.7497 5.49854 9.3315 4.69788C11.1495 6.49938 12.819 8.74788 14.3415 11.4479C11.3415 12.3479 8.1705 12.7979 4.83 12.7979C3.9705 12.7979 3.321 12.7784 2.88 12.7379C3.33971 11.0195 4.15192 9.41547 5.265 8.02788ZM2.49 15.8279C2.49 15.7469 2.4945 15.6479 2.505 15.5279C2.5155 15.4079 2.52 15.3089 2.52 15.2279C2.901 15.2489 3.4815 15.2579 4.2615 15.2579C8.2605 15.2579 11.9805 14.7074 15.42 13.6079C15.7005 14.1674 15.9915 14.7974 16.29 15.4979C14.31 15.9374 12.279 17.0069 10.1985 18.7079C8.118 20.4089 6.6 22.1984 5.64 24.0779C3.54 21.6974 2.49 18.9479 2.49 15.8279ZM15 28.3379C12.159 28.3379 9.609 27.4574 7.3485 25.6994C8.25 23.9189 9.6345 22.2164 11.505 20.5979C13.374 18.9779 15.2295 17.9684 17.07 17.5679C18.231 20.7764 19.0162 24.1086 19.41 27.4979C18.0043 28.0472 16.5092 28.332 15 28.3379ZM25.62 22.3979C24.6382 23.9797 23.3161 25.3228 21.75 26.3294C21.39 23.2094 20.7 20.1689 19.6815 17.2079C21.0795 17.1089 22.329 17.0579 23.4315 17.0579C24.63 17.0579 25.9605 17.1089 27.42 17.2079C27.2242 19.0526 26.6084 20.828 25.62 22.3979ZM23.76 14.8979C22.02 14.8979 20.4105 14.9684 18.93 15.1079C18.6164 14.2871 18.2762 13.4766 17.91 12.6779C21.009 11.3189 23.208 9.66888 24.5085 7.72788C26.3085 9.84888 27.2895 12.2684 27.4485 14.9879C26.2305 14.9279 25.0005 14.8979 23.76 14.8979Z" fill="black"/>
</svg>
