<svg width="28" height="28" viewBox="0 0 28 28" fill="none" xmlns="http://www.w3.org/2000/svg">
<path d="M26 0.327881H2C1.60218 0.327881 1.22064 0.485916 0.93934 0.767221C0.658035 1.04853 0.5 1.43006 0.5 1.82788V25.8279C0.5 26.2257 0.658035 26.6072 0.93934 26.8885C1.22064 27.1698 1.60218 27.3279 2 27.3279H14.9225V16.8879H11.4155V12.8004H14.9225V9.80038C14.9225 6.31288 17.0525 4.41238 20.1725 4.41238C21.221 4.40938 22.271 4.46338 23.315 4.57288V8.20288H21.1625C19.4705 8.20288 19.1405 9.00988 19.1405 10.1904V12.7929H23.186L22.661 16.8804H19.139V27.3279H26C26.3978 27.3279 26.7794 27.1698 27.0607 26.8885C27.342 26.6072 27.5 26.2257 27.5 25.8279V1.82788C27.5 1.43006 27.342 1.04853 27.0607 0.767221C26.7794 0.485916 26.3978 0.327881 26 0.327881Z" fill="black"/>
</svg>
