<svg width="28" height="28" viewBox="0 0 28 28" fill="none" xmlns="http://www.w3.org/2000/svg">
<path d="M13.9986 6.89345C12.159 6.89345 10.3948 7.6242 9.09406 8.92496C7.79331 10.2257 7.06255 11.9899 7.06255 13.8294C7.06255 15.669 7.79331 17.4332 9.09406 18.7339C10.3948 20.0347 12.159 20.7654 13.9986 20.7654C15.8381 20.7654 17.6023 20.0347 18.903 18.7339C20.2038 17.4332 20.9346 15.669 20.9346 13.8294C20.9346 11.9899 20.2038 10.2257 18.903 8.92496C17.6023 7.6242 15.8381 6.89345 13.9986 6.89345ZM13.9986 18.3339C12.8035 18.3339 11.6574 17.8592 10.8123 17.0142C9.96729 16.1691 9.49255 15.023 9.49255 13.8279C9.49255 12.6329 9.96729 11.4868 10.8123 10.6417C11.6574 9.79669 12.8035 9.32195 13.9986 9.32195C15.1936 9.32195 16.3397 9.79669 17.1848 10.6417C18.0298 11.4868 18.5046 12.6329 18.5046 13.8279C18.5046 15.023 18.0298 16.1691 17.1848 17.0142C16.3397 17.8592 15.1936 18.3339 13.9986 18.3339Z" fill="black"/>
<path d="M21.2091 8.25545C22.1021 8.25545 22.8261 7.53149 22.8261 6.63845C22.8261 5.7454 22.1021 5.02145 21.2091 5.02145C20.316 5.02145 19.5921 5.7454 19.5921 6.63845C19.5921 7.53149 20.316 8.25545 21.2091 8.25545Z" fill="black"/>
<path d="M26.7996 4.99445C26.4523 4.09772 25.9216 3.28337 25.2416 2.60354C24.5615 1.9237 23.7469 1.39336 22.8501 1.04645C21.8006 0.652485 20.6918 0.439461 19.5711 0.416449C18.1266 0.353449 17.6691 0.335449 14.0061 0.335449C10.3431 0.335449 9.87355 0.335449 8.44105 0.416449C7.32114 0.438284 6.21319 0.651351 5.16505 1.04645C4.26796 1.39295 3.4532 1.92315 2.77305 2.60304C2.09291 3.28293 1.56239 4.09749 1.21555 4.99445C0.821509 6.04387 0.608974 7.1527 0.587052 8.27345C0.522552 9.71645 0.503052 10.1739 0.503052 13.8385C0.503052 17.5014 0.503052 17.968 0.587052 19.4035C0.609552 20.5254 0.821052 21.6325 1.21555 22.684C1.56337 23.5806 2.0944 24.3948 2.77471 25.0746C3.45502 25.7544 4.26965 26.2848 5.16655 26.6319C6.2127 27.0417 7.32111 27.27 8.44405 27.3069C9.88855 27.3699 10.3461 27.3895 14.0091 27.3895C17.6721 27.3895 18.1416 27.3895 19.5741 27.3069C20.6947 27.2842 21.8034 27.0717 22.8531 26.6785C23.7497 26.3307 24.564 25.7999 25.244 25.1199C25.924 24.4399 26.4548 23.6256 26.8026 22.729C27.1971 21.679 27.4086 20.572 27.4311 19.45C27.4956 18.007 27.5151 17.5494 27.5151 13.885C27.5151 10.2204 27.5151 9.75545 27.4311 8.31995C27.4136 7.18336 27.2 6.05832 26.7996 4.99445ZM24.9726 19.2924C24.9629 20.1569 24.8051 21.0133 24.5061 21.8244C24.2808 22.4078 23.9359 22.9375 23.4937 23.3795C23.0514 23.8215 22.5215 24.166 21.9381 24.3909C21.1359 24.6886 20.2886 24.8464 19.4331 24.8575C18.0081 24.9235 17.6061 24.94 13.9521 24.94C10.2951 24.94 9.92155 24.94 8.46955 24.8575C7.61444 24.847 6.76754 24.6892 5.96605 24.3909C5.38058 24.1674 4.84855 23.8235 4.40439 23.3814C3.96022 22.9393 3.6138 22.4089 3.38755 21.8244C3.09272 21.022 2.93502 20.1757 2.92105 19.3209C2.85655 17.896 2.84155 17.494 2.84155 13.84C2.84155 10.1845 2.84155 9.81095 2.92105 8.35745C2.93075 7.49348 3.08853 6.63758 3.38755 5.82695C3.84505 4.64345 4.78255 3.71195 5.96605 3.25895C6.76794 2.96216 7.61459 2.80439 8.46955 2.79245C9.89605 2.72795 10.2966 2.70995 13.9521 2.70995C17.6076 2.70995 17.9826 2.70995 19.4331 2.79245C20.2887 2.80274 21.1361 2.96056 21.9381 3.25895C22.5214 3.48436 23.0513 3.82925 23.4935 4.27149C23.9358 4.71374 24.2806 5.24356 24.5061 5.82695C24.8009 6.62937 24.9586 7.47569 24.9726 8.33045C25.0371 9.75695 25.0536 10.1574 25.0536 13.813C25.0536 17.4669 25.0536 17.86 24.9891 19.294H24.9726V19.2924Z" fill="black"/>
</svg>
