<svg width="21" height="21" viewBox="0 0 21 21" fill="none" xmlns="http://www.w3.org/2000/svg">
<path d="M9.76989 2.64487C10.1367 1.90162 11.1965 1.90162 11.5634 2.64487L13.3729 6.31135C13.5185 6.6065 13.8001 6.81107 14.1258 6.8584L18.172 7.44634C18.9922 7.56553 19.3198 8.5735 18.7262 9.15204L15.7984 12.006C15.5627 12.2357 15.4551 12.5667 15.5108 12.8911L16.202 16.921C16.3421 17.7379 15.4846 18.3609 14.751 17.9752L11.132 16.0725C10.8406 15.9194 10.4926 15.9194 10.2013 16.0725L6.58225 17.9752C5.84862 18.3609 4.99119 17.7379 5.1313 16.921L5.82247 12.8911C5.87811 12.5667 5.77056 12.2357 5.53487 12.006L2.60701 9.15204C2.01349 8.5735 2.341 7.56553 3.16122 7.44634L7.20743 6.8584C7.53314 6.81107 7.81471 6.6065 7.96037 6.31135L9.76989 2.64487Z" fill="#2D2D2D"/>
</svg>
